#!OML:ASF H:\Pregnant\Project 1\Capture day 1\Session 1\femalepreg.ASF
:FULLY-SPECIFIED
:DEGREES
367
root -7.82649 15.4966 13.3358 200.378 1.2088 -181.907
lowerback -13.7744 0.973229 -9.76844
upperback -5.3355 3.63419 -3.72703
thorax 1.74757 2.28627 2.11488
lowerneck -26.4361 3.89384 4.23648
upperneck 27.8467 3.42935 -0.558019
head 14.0146 1.6588 -0.314024
rclavicle -2.96189e-014 1.59028e-014
rhumerus -6.05438 29.3341 -63.4618
rradius 62.7832
rwrist -48.049
rhand -24.4957 -52.8214
rfingers 7.12502
rthumb 1.9986 -82.7918
lclavicle -2.96189e-014 1.59028e-014
lhumerus 6.66606 -46.1714 48.0172
lradius 66.7707
lwrist 71.9675
lhand -38.8358 34.3251
lfingers 7.12502
lthumb -11.8454 63.9701
rfemur -42.7794 15.2225 11.6829
rtibia 68.7101
rfoot -6.26891 -8.26281
rtoes -9.4707
lfemur -42.9749 -3.56527 -18.1838
ltibia 31.8737
lfoot -7.05545 8.15672
ltoes -37.4574
368
root -7.87289 15.514 13.2501 200.276 1.63622 -181.941
lowerback -13.7615 1.03769 -10.1378
upperback -5.30816 3.77773 -3.81915
thorax 1.73607 2.36237 2.24006
lowerneck -26.3265 3.79524 4.16004
upperneck 27.8061 3.28751 -0.459849
head 13.967 1.60292 -0.291854
rclavicle -1.14301e-014 -2.54444e-014
rhumerus -6.1803 29.0704 -63.5849
rradius 62.5877
rwrist -47.9901
rhand -24.6114 -52.3871
rfingers 7.12502
rthumb 1.88693 -82.3585
lclavicle -1.14301e-014 -2.54444e-014
lhumerus 6.89626 -46.303 47.8972
lradius 66.758
lwrist 71.9913
lhand -38.8673 34.3708
lfingers 7.12502
lthumb -11.8756 64.0141
rfemur -43.6499 15.1696 11.5526
rtibia 69.9012
rfoot -5.60754 -7.72214
rtoes -7.55126
lfemur -42.3256 -3.37377 -18.5285
ltibia 31.7838
lfoot -7.37485 8.45908
ltoes -37.2209
369
root -7.91758 15.5308 13.1663 200.208 1.98444 -181.977
lowerback -13.7556 1.07697 -10.4538
upperback -5.29154 3.88533 -3.92333
thorax 1.7246 2.42192 2.31809
lowerneck -26.2004 3.70359 4.10058
upperneck 27.7507 3.14372 -0.345419
head 13.9102 1.55048 -0.266503
rclavicle -3.39922e-014 6.04305e-014
rhumerus -6.29461 28.7942 -63.7393
rradius 62.4044
rwrist -47.9535
rhand -24.755 -51.9168
rfingers 7.12502
rthumb 1.74824 -81.8894
lclavicle -3.39922e-014 6.04305e-014
lhumerus 7.14543 -46.4353 47.7206
lradius 66.7426
lwrist 72.026
lhand -38.8852 34.4195
lfingers 7.12502
lthumb -11.893 64.0617
rfemur -44.5189 15.0681 11.4343
rtibia 70.9773
rfoot -5.40262 -7.22454
rtoes -6.44607
lfemur -41.7428 -3.226 -18.8506
ltibia 31.6822
lfoot -7.67216 8.70834
ltoes -36.9853
370
root -7.96034 15.547 13.084 200.174 2.24794 -181.996
lowerback -13.7468 1.09535 -10.6988
upperback -5.28922 3.95823 -4.03838
thorax 1.70582 2.46571 2.34034
lowerneck -26.0562 3.61051 4.04828
upperneck 27.6818 2.98622 -0.203559
head 13.8438 1.49676 -0.234242
rclavicle -2.68359e-014 -5.88403e-014
rhumerus -6.41546 28.4989 -63.9319
rradius 62.2464
rwrist -47.9223
rhand -24.8925 -51.4304
rfingers 7.12502
rthumb 1.61542 -81.404
lclavicle -2.68359e-014 -5.88403e-014
lhumerus 7.41424 -46.5783 47.4829
lradius 66.728
lwrist 72.0722
lhand -38.8991 34.4511
lfingers 7.12502
lthumb -11.9063 64.0926
rfemur -45.3829 14.9241 11.3514
rtibia 71.923
rfoot -5.55986 -6.77964
rtoes -5.88248
lfemur -41.2335 -3.11867 -19.1311
ltibia 31.5876
lfoot -7.95718 8.90628
ltoes -36.7473
371
root -8.00104 15.562 13.0029 200.17 2.42796 -181.991
lowerback -13.7338 1.09491 -10.8719
upperback -5.30187 3.9975 -4.15674
thorax 1.67817 2.49414 2.31444
lowerneck -25.9047 3.52589 4.01835
upperneck 27.6105 2.82819 -0.0523756
head 13.7759 1.4462 -0.202145
rclavicle 2.41523e-014 4.77083e-014
rhumerus -6.55179 28.1879 -64.1595
rradius 62.1194
rwrist -47.8798
rhand -24.8815 -51.1853
rfingers 7.12502
rthumb 1.62603 -81.1588
lclavicle 2.41523e-014 4.77083e-014
lhumerus 7.69214 -46.7297 47.2024
lradius 66.7136
lwrist 72.1198
lhand -38.908 34.4856
lfingers 7.12502
lthumb -11.9149 64.1266
rfemur -46.2378 14.737 11.3181
rtibia 72.725
rfoot -5.94457 -6.38482
rtoes -5.60506
lfemur -40.8031 -3.05159 -19.3578
ltibia 31.5222
lfoot -8.23589 9.06519
ltoes -36.5244
372
root -8.03976 15.5765 12.9227 200.187 2.5267 -181.947
lowerback -13.7077 1.07476 -10.9652
upperback -5.31962 3.99661 -4.26618
thorax 1.64775 2.50194 2.24821
lowerneck -25.767 3.45656 4.00992
upperneck 27.5359 2.68069 0.106389
head 13.7105 1.40354 -0.168297
rclavicle 3.33958e-014 -2.38542e-014
rhumerus -6.67545 27.8821 -64.4032
rradius 62.0235
rwrist -47.818
rhand -24.8584 -50.9772
rfingers 7.12502
rthumb 1.64829 -80.9506
lclavicle 3.33958e-014 -2.38542e-014
lhumerus 7.96382 -46.8612 46.8939
lradius 66.703
lwrist 72.1752
lhand -38.9277 34.4917
lfingers 7.12502
lthumb -11.934 64.1315
rfemur -47.0604 14.5358 11.3503
rtibia 73.3599
rfoot -6.41567 -6.04122
rtoes -5.46892
lfemur -40.4407 -3.01889 -19.5187
ltibia 31.4967
lfoot -8.51701 9.19087
ltoes -36.3061
373
root -8.07672 15.5896 12.8433 200.223 2.55569 -181.864
lowerback -13.672 1.04383 -10.9841
upperback -5.34935 3.96877 -4.36682
thorax 1.60723 2.49662 2.1462
lowerneck -25.6192 3.38744 4.00626
upperneck 27.4677 2.52649 0.277856
head 13.6463 1.35949 -0.131701
rclavicle -8.44835e-015 -1.74931e-014
rhumerus -6.80864 27.5839 -64.659
rradius 61.9566
rwrist -47.7383
rhand -24.8088 -50.8261
rfingers 7.12502
rthumb 1.69628 -80.7991
lclavicle -8.44835e-015 -1.74931e-014
lhumerus 8.22667 -46.995 46.5747
lradius 66.691
lwrist 72.2265
lhand -38.9456 34.4753
lfingers 7.12502
lthumb -11.9512 64.1142
rfemur -47.8512 14.3204 11.4458
rtibia 73.8249
rfoot -6.85994 -5.7432
rtoes -5.40662
lfemur -40.1432 -3.01343 -19.6155
ltibia 31.5191
lfoot -8.80228 9.29317
ltoes -36.1104
374
root -8.11198 15.6018 12.7641 200.268 2.52997 -181.737
lowerback -13.6376 1.00595 -10.9365
upperback -5.37657 3.9196 -4.44884
thorax 1.57561 2.47834 2.0251
lowerneck -25.4746 3.32363 4.01014
upperneck 27.3989 2.37682 0.449627
head 13.5831 1.31789 -0.0953447
rclavicle -2.90226e-014 -9.54166e-015
rhumerus -6.92707 27.2948 -64.9068
rradius 61.9136
rwrist -47.6382
rhand -24.759 -50.7106
rfingers 7.12502
rthumb 1.74435 -80.6832
lclavicle -2.90226e-014 -9.54166e-015
lhumerus 8.4847 -47.1077 46.2575
lradius 66.6735
lwrist 72.2679
lhand -38.9803 34.4864
lfingers 7.12502
lthumb -11.9847 64.1233
rfemur -48.5944 14.1244 11.6019
rtibia 74.1137
rfoot -7.22909 -5.50339
rtoes -5.46104
lfemur -39.8888 -3.02405 -19.6488
ltibia 31.5831
lfoot -9.09379 9.38134
ltoes -35.9384
375
root -8.14589 15.6133 12.6848 200.323 2.46974 -181.577
lowerback -13.6076 0.963536 -10.8388
upperback -5.40757 3.8558 -4.51436
thorax 1.54583 2.45163 1.89227
lowerneck -25.3351 3.26156 4.01606
upperneck 27.3482 2.22683 0.622035
head 13.5292 1.27558 -0.0591202
rclavicle -3.4191e-014 0
rhumerus -7.03289 27.0373 -65.1425
rradius 61.8881
rwrist -47.5342
rhand -24.7273 -50.6085
rfingers 7.12502
rthumb 1.77498 -80.5809
lclavicle -3.4191e-014 0
lhumerus 8.71614 -47.2039 45.959
lradius 66.656
lwrist 72.2973
lhand -39.0142 34.4948
lfingers 7.12502
lthumb -12.0174 64.1298
rfemur -49.2967 13.9611 11.7949
rtibia 74.239
rfoot -7.51869 -5.33237
rtoes -5.63453
lfemur -39.6703 -3.03927 -19.6369
ltibia 31.6823
lfoot -9.38878 9.46113
ltoes -35.8047
376
root -8.17867 15.6243 12.6052 200.389 2.39142 -181.397
lowerback -13.5878 0.919541 -10.7095
upperback -5.43986 3.78483 -4.56365
thorax 1.5215 2.42011 1.7588
lowerneck -25.2261 3.20657 4.03488
upperneck 27.3243 2.08555 0.775193
head 13.4938 1.23523 -0.0305283
rclavicle -2.21645e-014 -6.04305e-014
rhumerus -7.12795 26.795 -65.3623
rradius 61.8796
rwrist -47.4184
rhand -24.695 -50.5586
rfingers 7.12502
rthumb 1.80616 -80.5307
lclavicle -2.21645e-014 -6.04305e-014
lhumerus 8.92329 -47.2793 45.688
lradius 66.6378
lwrist 72.3225
lhand -39.0612 34.5008
lfingers 7.12502
lthumb -12.0627 64.1332
rfemur -49.9625 13.8434 12.0007
rtibia 74.2133
rfoot -7.74307 -5.23684
rtoes -5.86332
lfemur -39.4727 -3.05647 -19.5962
ltibia 31.7973
lfoot -9.68194 9.54161
ltoes -35.7032
377
root -8.21034 15.6341 12.5247 200.459 2.31221 -181.217
lowerback -13.5892 0.872068 -10.5816
upperback -5.46818 3.71074 -4.59591
thorax 1.51131 2.38568 1.64481
lowerneck -25.1347 3.15432 4.05246
upperneck 27.3219 1.94986 0.918436
head 13.4715 1.19532 -0.00430609
rclavicle -1.43125e-014 2.06736e-014
rhumerus -7.20771 26.5726 -65.557
rradius 61.887
rwrist -47.2963
rhand -24.675 -50.5392
rfingers 7.12502
rthumb 1.82542 -80.5112
lclavicle -1.43125e-014 2.06736e-014
lhumerus 9.10103 -47.3251 45.4579
lradius 66.6142
lwrist 72.3346
lhand -39.1028 34.5153
lfingers 7.12502
lthumb -12.1027 64.1453
rfemur -50.5957 13.7581 12.1956
rtibia 74.0597
rfoot -7.93712 -5.20245
rtoes -6.07079
lfemur -39.2776 -3.06863 -19.5538
ltibia 31.9158
lfoot -9.97207 9.62701
ltoes -35.65
